<svg width="20" height="18" viewBox="0 0 20 18" fill="none" xmlns="http://www.w3.org/2000/svg">
<path d="M17.9442 5.00293C17.9569 5.18059 17.9569 5.35828 17.9569 5.53594C17.9569 10.9547 13.8326 17.1984 6.29444 17.1984C3.97209 17.1984 1.81473 16.5258 0 15.3583C0.329962 15.3964 0.64719 15.4091 0.989848 15.4091C2.90607 15.4091 4.67006 14.7619 6.0787 13.6578C4.27666 13.6197 2.7665 12.4395 2.24618 10.8151C2.50001 10.8532 2.7538 10.8786 3.02032 10.8786C3.38833 10.8786 3.75638 10.8278 4.099 10.739C2.22083 10.3583 0.812152 8.70853 0.812152 6.71614V6.6654C1.35782 6.96997 1.99239 7.16032 2.66493 7.18567C1.56087 6.44962 0.837542 5.19328 0.837542 3.77195C0.837542 3.01054 1.04055 2.31257 1.3959 1.70343C3.41369 4.19074 6.4467 5.81508 9.8477 5.99278C9.78426 5.68821 9.74617 5.37098 9.74617 5.05371C9.74617 2.7948 11.5736 0.954712 13.8452 0.954712C15.0254 0.954712 16.0914 1.44964 16.8401 2.24913C17.7665 2.07147 18.6548 1.72882 19.4416 1.25928C19.137 2.21108 18.4898 3.01058 17.6396 3.51816C18.4645 3.42937 19.264 3.20089 20 2.88366C19.4417 3.69582 18.7437 4.41914 17.9442 5.00293Z" fill="black"/>
</svg>
