<svg width="16" height="16" viewBox="0 0 16 16" fill="none" xmlns="http://www.w3.org/2000/svg">
<path d="M11.4375 0.264038H4.5625C3.40258 0.265352 2.29055 0.72671 1.47036 1.5469C0.650172 2.36708 0.188814 3.47912 0.1875 4.63904V11.514C0.188814 12.674 0.650172 13.786 1.47036 14.6062C2.29055 15.4264 3.40258 15.8877 4.5625 15.889H11.4375C12.5974 15.8877 13.7095 15.4264 14.5296 14.6062C15.3498 13.786 15.8112 12.674 15.8125 11.514V4.63904C15.8112 3.47912 15.3498 2.36708 14.5296 1.5469C13.7095 0.72671 12.5974 0.265352 11.4375 0.264038ZM8 11.8265C7.25832 11.8265 6.5333 11.6066 5.91661 11.1945C5.29993 10.7825 4.81928 10.1968 4.53545 9.5116C4.25162 8.82638 4.17736 8.07238 4.32206 7.34495C4.46675 6.61752 4.8239 5.94933 5.34835 5.42489C5.8728 4.90044 6.54098 4.54329 7.26841 4.39859C7.99584 4.2539 8.74984 4.32816 9.43506 4.61199C10.1203 4.89582 10.706 5.37647 11.118 5.99315C11.5301 6.60983 11.75 7.33486 11.75 8.07654C11.7489 9.07076 11.3534 10.0239 10.6504 10.7269C9.94739 11.43 8.99422 11.8254 8 11.8265ZM12.0625 4.95154C11.8771 4.95154 11.6958 4.89655 11.5417 4.79354C11.3875 4.69053 11.2673 4.54411 11.1964 4.3728C11.1254 4.2015 11.1068 4.013 11.143 3.83114C11.1792 3.64928 11.2685 3.48224 11.3996 3.35113C11.5307 3.22001 11.6977 3.13073 11.8796 3.09455C12.0615 3.05838 12.25 3.07694 12.4213 3.1479C12.5926 3.21886 12.739 3.33902 12.842 3.49319C12.945 3.64736 13 3.82862 13 4.01404C13 4.26268 12.9012 4.50114 12.7254 4.67695C12.5496 4.85277 12.3111 4.95154 12.0625 4.95154Z" fill="black"/>
</svg>
