<svg width="14" height="16" viewBox="0 0 14 16" fill="none" xmlns="http://www.w3.org/2000/svg">
<path d="M11.6667 11.1042C11.0756 11.1042 10.5467 11.3375 10.1422 11.7031L4.59667 8.4753C4.63556 8.29641 4.66667 8.11752 4.66667 7.93085C4.66667 7.74419 4.63556 7.5653 4.59667 7.38641L10.08 4.18974C10.5 4.57863 11.0522 4.81974 11.6667 4.81974C12.9578 4.81974 14 3.77752 14 2.48641C14 1.1953 12.9578 0.153076 11.6667 0.153076C10.3756 0.153076 9.33333 1.1953 9.33333 2.48641C9.33333 2.67308 9.36444 2.85196 9.40333 3.03085L3.92 6.22752C3.5 5.83863 2.94778 5.59752 2.33333 5.59752C1.04222 5.59752 0 6.63974 0 7.93085C0 9.22196 1.04222 10.2642 2.33333 10.2642C2.94778 10.2642 3.5 10.0231 3.92 9.63419L9.45778 12.8697C9.41889 13.0331 9.39556 13.2042 9.39556 13.3753C9.39556 14.6275 10.4144 15.6464 11.6667 15.6464C12.9189 15.6464 13.9378 14.6275 13.9378 13.3753C13.9378 12.1231 12.9189 11.1042 11.6667 11.1042Z" fill="black"/>
</svg>
