<svg width="20" height="19" viewBox="0 0 20 19" fill="none" xmlns="http://www.w3.org/2000/svg">
<path fill-rule="evenodd" clip-rule="evenodd" d="M10.1923 2.93025e-09H10.1914C10.1742 2.93025e-09 10.1579 -3.21321e-06 10.1425 0.000203453C10.0193 0.00144387 9.81689 0.00340458 9.7987 0.00361125C9.35472 0.00361125 8.46638 0.0661523 7.51217 0.486107C6.9666 0.726059 6.47586 1.05051 6.05365 1.45046C5.55026 1.92701 5.14018 2.51456 4.835 3.19705C4.38806 4.19634 4.49416 5.87951 4.57937 7.23214L4.57968 7.23427C4.5888 7.37913 4.59839 7.5304 4.60715 7.67779C4.54158 7.70782 4.43528 7.7395 4.27859 7.7395C4.02649 7.7395 3.72669 7.65914 3.38777 7.50079C3.28805 7.45448 3.17423 7.43107 3.04864 7.43107C2.84687 7.43107 2.63415 7.49029 2.44963 7.59846C2.21748 7.73438 2.06748 7.92648 2.02674 8.13946C1.9999 8.28034 2.00119 8.55879 2.3114 8.84117C2.48202 8.99663 2.73268 9.13998 3.05621 9.26748C3.14111 9.30081 3.24187 9.33264 3.34859 9.36639C3.71892 9.48376 4.27942 9.66108 4.42558 10.0041C4.49965 10.178 4.46777 10.4068 4.33109 10.6834C4.32752 10.691 4.32395 10.6983 4.32068 10.7061C4.28652 10.7856 3.96786 11.5053 3.31422 12.2644C2.9428 12.696 2.5337 13.0567 2.09894 13.3368C1.5683 13.6788 0.994117 13.9024 0.392515 14.0012C0.156269 14.0399 -0.0124452 14.2497 0.000720252 14.4882C0.00476275 14.557 0.0209353 14.6255 0.0489762 14.6918C0.0491832 14.6922 0.0494426 14.6926 0.0496501 14.693C0.145175 14.9158 0.366651 15.105 0.726721 15.272C1.16671 15.4757 1.82476 15.6472 2.68241 15.7813C2.72574 15.8634 2.77073 16.07 2.80188 16.2114C2.83448 16.3616 2.86848 16.5162 2.91694 16.6803C2.96924 16.8581 3.10488 17.0706 3.45334 17.0706C3.5854 17.0706 3.73727 17.041 3.91313 17.007C4.17068 16.9566 4.52287 16.8879 4.96245 16.8879C5.20616 16.8879 5.45873 16.9093 5.71296 16.9514C6.20302 17.0327 6.6255 17.3303 7.11432 17.6749C7.82979 18.1792 8.63965 18.75 9.87702 18.75C9.91076 18.75 9.9446 18.7489 9.97803 18.7466C10.0189 18.7485 10.0696 18.75 10.1231 18.75C11.3608 18.75 12.1705 18.179 12.8852 17.6751L12.8863 17.6741C13.3752 17.3299 13.7972 17.0327 14.2872 16.9514C14.5413 16.9093 14.7938 16.8879 15.0376 16.8879C15.4576 16.8879 15.79 16.9412 16.0869 16.999C16.2807 17.037 16.4312 17.0553 16.5468 17.0553L16.5581 17.0555H16.5698C16.8246 17.0555 17.0119 16.916 17.0834 16.6719C17.1309 16.5113 17.1648 16.3603 17.1982 16.2075C17.2273 16.075 17.2739 15.8626 17.3172 15.7796C18.1754 15.6452 18.8332 15.4741 19.2732 15.2704C19.6325 15.1043 19.8537 14.9152 19.9498 14.6933C19.9786 14.6268 19.9955 14.5579 19.9992 14.4877C20.0128 14.2496 19.8438 14.0393 19.6074 14.0007C16.9337 13.5613 15.7292 10.822 15.6794 10.7056C15.6762 10.698 15.6725 10.6904 15.6688 10.683C15.5321 10.4063 15.5005 10.1777 15.5746 10.0035C15.7205 9.66082 16.2806 9.4835 16.6512 9.36619C16.7585 9.33249 16.8596 9.30045 16.9439 9.26727C17.3087 9.1236 17.5695 8.96773 17.7415 8.79073C17.9469 8.57972 17.987 8.37754 17.9845 8.24524C17.9782 7.92513 17.7328 7.64069 17.3424 7.50141C17.2105 7.44704 17.0602 7.41835 16.9071 7.41835C16.8028 7.41835 16.6485 7.43262 16.5024 7.50064C16.1896 7.64658 15.9094 7.72638 15.6688 7.73774C15.5409 7.73128 15.4512 7.70363 15.3931 7.67722C15.4004 7.55236 15.4085 7.42409 15.4168 7.29034L15.4203 7.23309C15.506 5.87958 15.6124 4.1951 15.1653 3.19509C14.8588 2.51017 14.4473 1.92111 13.9419 1.44353C13.518 1.04332 13.0256 0.718923 12.478 0.479126C11.5252 0.0622723 10.6369 2.93025e-09 10.1923 2.93025e-09Z" fill="black"/>
</svg>
